<?xml version="1.0" standalone="no"?>
<!DOCTYPE svg PUBLIC "-//W3C//DTD SVG 1.1//EN" "http://www.w3.org/Graphics/SVG/1.1/DTD/svg11.dtd" >
<!--
2013-10-14: Created.
-->
<svg xmlns="http://www.w3.org/2000/svg">
<metadata>
Created by FontForge 20120731 at Mon Oct 14 14:48:00 2013
 By Ian Soper
Created by Ian Soper with FontForge 2.0 (http://fontforge.sf.net)
</metadata>
<defs>
<font id="icons" horiz-adv-x="512" >
  <font-face 
    font-family="icons"
    font-weight="500"
    font-stretch="normal"
    units-per-em="512"
    panose-1="2 0 6 3 0 0 0 0 0 0"
    ascent="448"
    descent="-64"
    bbox="-0.0843918 -64.0134 512.25 457"
    underline-thickness="25.6"
    underline-position="-51.2"
    unicode-range="U+F100-F14E"
  />
    <missing-glyph />
    <glyph glyph-name="uniF100" unicode="&#xf100;" horiz-adv-x="496" 
d="M341 314c-35 -29 -69 -66 -101 -113c-5 -8 -11 -16 -16 -24c-9 9 -19 17 -29 27c-8 8 -15 15 -21 22l-8 8l-59 -55c2 -2 5 -6 9 -10l23 -23c24 -24 50 -45 68 -58l4 -5l37 -27l22 41c11 21 23 39 35 57c36 52 74 90 111 116c9 6 18 12 26 16h54v-187h-155v-155h-186v155
h-155v187h155v0v155h186v-127z" />
    <glyph glyph-name="uniF101" unicode="&#xf101;" 
d="M17 175l112 -27c17 -4 41 2 55 13l316 264c14 11 16 9 6 -6l-310 -455c-10 -15 -27 -16 -38 -2l-152 195c-11 14 -6 22 11 18z" />
    <glyph glyph-name="uniF102" unicode="&#xf102;" horiz-adv-x="450" 
d="M290 213l77 87l83 -101l-179 -202l-40 -46l-41 44l-190 203l81 103l89 -95v225h120v-218z" />
    <glyph glyph-name="uniF103" unicode="&#xf103;" horiz-adv-x="480" 
d="M262 118l87 -87l-101 -95l-202 203l-46 46l44 47l203 216l103 -92l-95 -102h225v-136h-218z" />
    <glyph glyph-name="uniF104" unicode="&#xf104;" horiz-adv-x="480" 
d="M218 266l-87 87l101 95l202 -203l46 -46l-44 -47l-203 -216l-103 92l95 102h-225v136h218z" />
    <glyph glyph-name="uniF105" unicode="&#xf105;" horiz-adv-x="450" 
d="M160 169l-77 -87l-83 101l179 202l40 46l41 -44l190 -203l-81 -103l-89 95v-225h-120v218z" />
    <glyph glyph-name="uniF106" unicode="&#xf106;" horiz-adv-x="486" 
d="M486 367l-70 66l-174 -187l-172 185l-70 -66l242 -259z" />
    <glyph glyph-name="uniF107" unicode="&#xf107;" horiz-adv-x="327" 
d="M262 -51l65 70l-186 174l184 172l-65 70l-260 -242z" />
    <glyph glyph-name="uniF108" unicode="&#xf108;" horiz-adv-x="327" 
d="M66 435l-66 -70l186 -174l-184 -172l66 -70l259 242z" />
    <glyph glyph-name="uniF109" unicode="&#xf109;" horiz-adv-x="486" 
d="M486 367l-70 66l-174 -187l-172 185l-70 -66l242 -259z" />
    <glyph glyph-name="uniF10A" unicode="&#xf10a;" horiz-adv-x="327" 
d="M262 -51l65 70l-186 174l184 172l-65 70l-260 -242z" />
    <glyph glyph-name="uniF10B" unicode="&#xf10b;" horiz-adv-x="327" 
d="M66 435l-66 -70l186 -174l-184 -172l66 -70l259 242z" />
    <glyph glyph-name="uniF10C" unicode="&#xf10c;" horiz-adv-x="486" 
d="M0 177l70 -66l174 187l172 -185l70 66l-242 259z" />
    <glyph glyph-name="uniF10D" unicode="&#xf10d;" horiz-adv-x="502" 
d="M502 417l-27 25l-225 -241l-223 239l-27 -25l250 -268z" />
    <glyph glyph-name="uniF10E" unicode="&#xf10e;" horiz-adv-x="295" 
d="M270 -59l25 27l-241 226l239 222l-25 27l-268 -249z" />
    <glyph glyph-name="uniF10F" unicode="&#xf10f;" horiz-adv-x="295" 
d="M25 443l-25 -27l242 -226l-240 -222l25 -27l268 249z" />
    <glyph glyph-name="uniF110" unicode="&#xf110;" horiz-adv-x="502" 
d="M0 186l27 -25l226 242l222 -239l27 25l-249 268z" />
    <glyph glyph-name="uniF111" unicode="&#xf111;" horiz-adv-x="475" 
d="M236 174l-236 253l475 3z" />
    <glyph glyph-name="uniF112" unicode="&#xf112;" horiz-adv-x="256" 
d="M0 194l254 236l2 -476z" />
    <glyph glyph-name="uniF113" unicode="&#xf113;" horiz-adv-x="256" 
d="M256 190l-254 -236l-2 476z" />
    <glyph glyph-name="uniF114" unicode="&#xf114;" horiz-adv-x="475" 
d="M239 430l236 -254l-475 -2z" />
    <glyph glyph-name="uniF115" unicode="&#xf115;" horiz-adv-x="486" 
d="M0 177l70 -66l174 187l172 -185l70 66l-242 259z" />
    <glyph glyph-name="uniF116" unicode="&#xf116;" 
d="M512 256l-176 -176h-115l137 135h-358v82h358l-137 135h115v0l176 -176v0z" />
    <glyph glyph-name="uniF117" unicode="&#xf117;" 
d="M256 -64c-141 0 -256 115 -256 256s115 256 256 256s256 -115 256 -256s-115 -256 -256 -256z" />
    <glyph glyph-name="uniF118" unicode="&#xf118;" 
d="M224 160v-128h64v128h128v64h-128v128h-64v-128h-128v-64h128zM256 -64c-141 0 -256 115 -256 256s115 256 256 256s256 -115 256 -256s-115 -256 -256 -256z" />
    <glyph glyph-name="uniF119" unicode="&#xf119;" 
d="M11 60c-14 14 -14 37 0 51l310 311c14 14 43 26 63 26h92c20 0 36 -17 36 -37v-91c0 -20 -12 -49 -26 -63l-310 -310c-14 -14 -38 -15 -52 -1z" />
    <glyph glyph-name="uniF11A" unicode="&#xf11a;" horiz-adv-x="293" 
d="M110 375v73h73v-73h-73zM110 265v73h73v-73h-73zM110 155v74h73v-74h-73zM110 46v73h73v-73h-73zM110 -64v73h73v-73h-73zM0 375v73h73v-73h-73zM0 265v73h73v-73h-73zM0 155v74h73v-74h-73zM0 46v73h73v-73h-73zM0 -64v73h73v-73h-73zM219 375v73h74v-73h-74zM219 265
v73h74v-73h-74zM219 155v74h74v-74h-74zM219 46v73h74v-73h-74zM219 -64v73h74v-73h-74z" />
    <glyph glyph-name="uniF11B" unicode="&#xf11b;" horiz-adv-x="183" 
d="M110 375v73h73v-73h-73zM110 265v73h73v-73h-73zM110 155v74h73v-74h-73zM110 46v73h73v-73h-73zM110 -64v73h73v-73h-73zM0 375v73h73v-73h-73zM0 265v73h73v-73h-73zM0 155v74h73v-74h-73zM0 46v73h73v-73h-73zM0 -64v73h73v-73h-73z" />
    <glyph glyph-name="uniF11C" unicode="&#xf11c;" 
d="M256 -64c-141 0 -256 115 -256 256s115 256 256 256s256 -115 256 -256s-115 -256 -256 -256zM96 224v-64h320v64h-320z" />
    <glyph glyph-name="uniF11D" unicode="&#xf11d;" horiz-adv-x="384" 
d="M352 368v-32h-320v32c0 18 14 32 32 32h84l9 32h70l9 -32h84c18 0 32 -14 32 -32zM34 304h316h34v-40h-36l-20 -280c-1 -18 -16 -32 -34 -32h-204c-17 0 -33 14 -34 32l-20 280h-36v40h34z" />
    <glyph glyph-name="uniF11E" unicode="&#xf11e;" 
d="M128 288v-352h-128v352h128zM192 448h128v-512h-128v512zM384 128h128v-192h-128v192z" />
    <glyph glyph-name="uniF11F" unicode="&#xf11f;" horiz-adv-x="320" 
d="M256 288h64v-256h-64v256zM128 352h64v-320h-64v320zM0 192h64v-160h-64v160z" />
    <glyph glyph-name="uniF120" unicode="&#xf120;" 
d="M512 192c0 -141 -115 -256 -256 -256s-256 115 -256 256s115 256 256 256s256 -115 256 -256zM184 299c-11 -13 -17 -30 -17 -51c0 -15 3 -27 8 -38s12 -19 20 -24s17 -11 26 -15s19 -7 27 -10s15 -7 20 -12s8 -10 8 -17c0 -17 -13 -25 -39 -25c-19 0 -41 3 -66 10
l-2 -54c21 -4 42 -7 62 -7v-60h44v64c40 10 61 37 61 79c0 15 -4 28 -11 39s-17 18 -28 24s-21 11 -32 15s-20 10 -27 15s-11 11 -11 18c0 8 3 14 9 19s13 7 22 7c19 0 41 -4 64 -12l3 54c-16 5 -33 8 -50 9v61h-44v-63c-20 -4 -36 -13 -47 -26z" />
    <glyph glyph-name="uniF121" unicode="&#xf121;" 
d="M268 423l1 1c21 -25 34 -58 34 -93c0 -68 -47 -125 -111 -142c10 -42 49 -73 95 -73c28 0 52 12 70 30c-16 16 -26 37 -26 61c0 49 41 88 91 88s90 -39 90 -88s-40 -88 -90 -88c-5 0 -11 1 -16 2c-28 -35 -70 -57 -119 -57c-74 0 -136 52 -149 120
c-77 7 -138 70 -138 147c0 39 16 74 41 100v-1v0c6 11 18 18 32 18c20 0 37 -16 37 -36s-17 -36 -37 -36c-5 0 -10 2 -15 4c-8 -15 -13 -31 -13 -49c0 -57 47 -103 106 -103s107 46 107 103c0 14 -4 27 -9 39c-4 -1 -8 -2 -12 -2c-20 0 -37 16 -37 36s17 36 37 36
c13 0 25 -7 31 -17z" />
    <glyph glyph-name="uniF122" unicode="&#xf122;" horiz-adv-x="402" 
d="M402 -64h-402v512h219l183 -183v-329zM198 247h146l-146 146v-146z" />
    <glyph glyph-name="uniF123" unicode="&#xf123;" 
d="M335 281l177 -26l-127 -132l32 -184l-159 86l-158 -89l29 185l-129 130l177 28l77 169z" />
    <glyph glyph-name="uniF124" unicode="&#xf124;" horiz-adv-x="416" 
d="M122 257c-35 -68 -62 -104 -80 -107v0v0c0 9 15 31 36 48v0c2 2 12 11 12 11v0s-13 -6 -16 -8v0c-27 -16 -40 -32 -42 -43v0c-1 -3 0 -6 3 -8l7 -4v0c19 -9 42 16 72 69v0c31 10 69 19 104 24v0c31 -18 68 -26 82 -22v0c3 1 6 2 7 4v0c1 2 2 9 2 9v0s-2 -3 -4 -4v0
c-9 -4 -37 2 -65 16v0c25 3 45 3 56 -1v0c14 -4 13 -9 13 -10v0c0 1 1 5 1 6v0c0 3 -1 6 -4 8v0c-5 5 -18 8 -35 8v0c-13 0 -29 -1 -46 -3v0c-8 4 -15 9 -22 15v0c-17 15 -30 37 -39 61v0c1 2 1 5 2 7v0c2 11 4 46 4 46v0s-7 -26 -8 -30v0l-3 -9v0c-5 18 -8 37 -8 50v0
c0 4 1 11 2 17v0c1 4 1 6 3 7v0c3 -1 7 -5 11 -13v0c3 -7 3 -15 3 -20v0s3 13 2 20v0c0 4 -4 15 -13 15h-1h-4v0c-6 0 -13 -3 -14 -8v0c-5 -20 1 -51 11 -89l-3 -8v0c-8 -19 -18 -37 -26 -54zM133 252c11 21 18 37 24 53c9 -18 22 -35 38 -49l12 -9c-30 -6 -62 -14 -91 -26
c5 9 11 20 17 31zM66 25h26c32 0 47 23 47 49s-15 49 -47 49h-57v-154h31v56zM275 46c0 45 -24 77 -67 77h-50v-154h50c43 0 67 32 67 77zM189 -4v100h19c23 0 36 -19 36 -50c0 -29 -13 -50 -36 -50h-19zM328 34h56v27h-56v35h57v27h-88v-154h31v65zM66 52v44h22
c12 0 20 -9 20 -22s-8 -22 -20 -22h-22zM416 -64h-416v512h227l189 -183v-329z" />
    <glyph glyph-name="uniF125" unicode="&#xf125;" 
d="M256 448c141 0 256 -115 256 -256s-115 -256 -256 -256s-256 115 -256 256s115 256 256 256zM208 240h-112v-96h112v-112h96v112h112v96h-112v112h-96v-112z" />
    <glyph glyph-name="uniF126" unicode="&#xf126;" 
d="M160 288v160h192v-160h160v-192h-160v-160h-192v160h-160v192h160z" />
    <glyph glyph-name="uniF127" unicode="&#xf127;" 
d="M256 448c141 0 256 -115 256 -256s-115 -256 -256 -256s-256 115 -256 256s115 256 256 256zM256 417c-124 0 -225 -101 -225 -225s101 -225 225 -225s225 101 225 225s-101 225 -225 225zM275 263c0 10 -7 18 -26 18c-17 0 -35 -9 -47 -24l-42 51c24 29 61 44 97 44
c58 0 95 -29 95 -74c0 -66 -69 -72 -69 -107c0 -8 3 -14 7 -18l-59 -16c-8 11 -13 25 -13 43c0 52 57 60 57 83zM217 76c0 24 18 43 41 43s42 -19 42 -43s-19 -44 -42 -44s-41 20 -41 44v0z" />
    <glyph glyph-name="uniF128" unicode="&#xf128;" 
d="M256 448c141 0 256 -115 256 -256s-115 -256 -256 -256s-256 115 -256 256s115 256 256 256zM256 417c-124 0 -225 -101 -225 -225s101 -225 225 -225s225 101 225 225s-101 225 -225 225zM325 59l-5 -20c-14 -6 -26 -9 -34 -12s-18 -5 -29 -5c-17 0 -31 5 -41 13
s-14 19 -14 32c0 5 0 10 1 15s2 11 4 18l17 63c2 6 3 12 4 17s2 11 2 15c0 8 -2 14 -5 17s-10 4 -19 4c-5 0 -9 -1 -14 -2s-10 -3 -13 -4l5 20c12 5 23 9 34 12s21 5 30 5c17 0 30 -5 39 -13s14 -19 14 -32c0 -3 0 -7 -1 -14s-1 -13 -3 -19l-18 -63c-1 -5 -3 -11 -4 -17
s-2 -12 -2 -15c0 -8 2 -14 6 -17s10 -4 19 -4c4 0 10 0 15 2s10 3 12 4c0 0 -2 -1 0 0zM329 322c0 -11 -4 -20 -12 -28s-18 -11 -30 -11s-22 3 -30 11s-12 17 -12 28s4 20 12 28s18 12 30 12s22 -4 30 -12s12 -17 12 -28v0z" />
    <glyph glyph-name="uniF129" unicode="&#xf129;" horiz-adv-x="320" 
d="M304 320h-285c-9 0 -16 7 -16 16s7 16 16 16h285c9 0 16 -7 16 -16s-7 -16 -16 -16zM241 224h-222c-9 0 -16 7 -16 16s7 16 16 16h222c9 0 16 -7 16 -16s-7 -16 -16 -16zM301 128h-285c-9 0 -16 7 -16 16s7 16 16 16h285c9 0 16 -7 16 -16s-7 -16 -16 -16zM276 32h-256
c-9 0 -17 7 -17 16s8 16 17 16h256c9 0 16 -7 16 -16s-7 -16 -16 -16z" />
    <glyph glyph-name="uniF12A" unicode="&#xf12a;" 
d="M512 -64h-512v512h512v-512zM448 256h-224v-128h224v128zM64 256v-128h128v128h-128zM448 0v96h-224v-96h224zM64 0h128v96h-128v-96zM448 384h-224v-96h224v96zM64 384v-96h128v96h-128z" />
    <glyph glyph-name="uniF12B" unicode="&#xf12b;" horiz-adv-x="439" 
d="M397 194h42v-258h-439v258h42v72c0 102 77 182 177 182s178 -80 178 -182v-72zM300 194v72c0 48 -35 85 -81 85s-80 -37 -80 -85v-72h161z" />
    <glyph glyph-name="uniF12C" unicode="&#xf12c;" horiz-adv-x="352" 
d="M108 162h244v-226h-352v226h27v127c0 89 65 159 149 159c83 0 149 -70 149 -159v-66h-81v66c0 42 -29 74 -68 74s-68 -32 -68 -74v-127z" />
    <glyph glyph-name="uniF12D" unicode="&#xf12d;" 
d="M32 432h448c18 0 32 -14 32 -32v-288c0 -18 -14 -32 -32 -32h-448c-18 0 -32 14 -32 32v288c0 18 14 32 32 32zM388 246l124 77v32l-256 -159l-256 159v-32l124 -77l-124 -85v-38l153 105l103 -64l103 64l153 -105v38z" />
    <glyph glyph-name="uniF12E" unicode="&#xf12e;" 
d="M415 -64l-319 1c-53 0 -96 43 -96 96l1 319c0 53 42 96 96 96l319 -1c53 0 96 -48 96 -101v-314c0 -53 -43 -96 -97 -96zM381 46c18 0 33 15 33 34s-15 34 -33 34h-254c-18 0 -33 -15 -33 -34s15 -34 33 -34h254zM381 162c18 0 33 14 33 32s-15 32 -33 32h-254
c-18 0 -33 -14 -33 -32s15 -32 33 -32h254zM381 274c18 0 33 14 33 32s-15 32 -33 32h-254c-18 0 -33 -14 -33 -32s15 -32 33 -32h254z" />
    <glyph glyph-name="uniF12F" unicode="&#xf12f;" 
d="M0 268h512v-91h-512v91zM0 432h512v-91h-512v91zM0 107h512v-91h-512v91z" />
    <glyph glyph-name="uniF130" unicode="&#xf130;" horiz-adv-x="482" 
d="M331 311c-34 -28 -68 -64 -99 -110c-5 -7 -10 -15 -15 -23c-9 8 -18 17 -28 26c-8 7 -15 14 -21 21c-4 4 -6 7 -7 8l-57 -53c2 -2 5 -6 9 -10l22 -22c24 -23 47 -44 65 -57l5 -4l36 -26l21 39c11 20 22 39 34 56c35 50 72 87 108 112c9 6 17 11 25 15h53v-180h-151v-151
h-180v151h-151v180h151v0v151h180v-123z" />
    <glyph glyph-name="uniF131" unicode="&#xf131;" 
d="M512 192c0 -141 -115 -256 -256 -256s-256 115 -256 256s115 256 256 256s256 -115 256 -256zM441 141v96h-363v-96h363z" />
    <glyph glyph-name="uniF132" unicode="&#xf132;" 
d="M259 121l91 -91l68 67l-97 98l89 105l-73 62l-84 -99l-91 91l-68 -67l97 -98l-89 -105l73 -62zM512 192c0 -141 -115 -256 -256 -256s-256 115 -256 256s115 256 256 256s256 -115 256 -256z" />
    <glyph glyph-name="uniF133" unicode="&#xf133;" 
d="M168 194l4 42s10 56 92 56c71 0 82 -56 82 -56l3 -38v0c14 12 36 23 72 23c71 0 82 -56 82 -56l9 -103c1 -11 -7 -25 -18 -29c-24 -9 -53 -17 -78 -17s-57 10 -78 18c-11 4 -19 17 -18 28l3 37c-21 -7 -44 -12 -64 -12c-22 0 -50 8 -70 15l3 -40c1 -11 -7 -25 -18 -29
c-24 -9 -53 -17 -78 -17s-57 10 -78 18c-11 4 -19 17 -18 28l9 103s11 56 93 56c34 0 54 -13 66 -27zM260 432c35 0 65 -28 65 -61s-30 -60 -65 -60s-64 27 -64 60s29 61 64 61zM417 361c35 0 65 -28 65 -61s-30 -60 -65 -60s-64 27 -64 60s29 61 64 61zM98 361
c35 0 64 -28 64 -61s-29 -60 -64 -60s-65 27 -65 60s30 61 65 61z" />
    <glyph glyph-name="uniF134" unicode="&#xf134;" horiz-adv-x="288" 
d="M146 448c53 0 96 -40 96 -90s-43 -90 -96 -90s-96 40 -96 90s43 90 96 90zM0 4l14 153s16 83 138 83c107 0 122 -83 122 -83l14 -153c1 -17 -10 -36 -27 -42c-36 -14 -80 -26 -117 -26s-86 16 -117 27c-17 6 -28 24 -27 41z" />
    <glyph glyph-name="uniF135" unicode="&#xf135;" 
d="M256 448c113 0 210 -65 256 -160c-46 -95 -143 -160 -256 -160s-210 65 -256 160c46 95 143 160 256 160zM256 191c52 0 95 44 95 97s-43 97 -95 97s-95 -44 -95 -97s43 -97 95 -97z" />
    <glyph glyph-name="uniF136" unicode="&#xf136;" 
d="M228 32h-132c-54 0 -96 43 -96 96v224c0 53 43 96 96 96h320c54 0 96 -43 96 -96v-224c0 -53 -43 -96 -96 -96h-32v-96l-156 96v0zM263 357c-21 0 -44 -5 -68 -15l5 -48c20 9 38 13 54 13c19 0 28 -8 28 -23c0 -6 -2 -11 -6 -16s-9 -11 -15 -16s-12 -9 -18 -15
s-12 -12 -16 -20s-6 -17 -6 -26s1 -17 3 -27h55c-3 7 -4 13 -4 20c0 12 5 22 16 32c2 2 5 6 11 10s10 8 12 10s6 5 10 10s6 9 8 13s4 9 5 15s2 12 2 19c0 17 -6 32 -19 45s-33 19 -57 19zM222 95h63v44h-63v-44z" />
    <glyph glyph-name="uniF137" unicode="&#xf137;" 
d="M411 -45v-1l-205 204c38 14 67 43 82 80l205 -203v0l2 -2c23 -22 23 -58 0 -80s-59 -22 -82 0l-2 2v0zM144 448c80 0 144 -63 144 -142s-64 -142 -144 -142s-144 63 -144 142c0 16 3 31 8 46l87 -85l71 20l21 71l-85 84c13 4 27 6 42 6zM476 -28c12 12 12 32 0 44
s-33 12 -45 0s-12 -32 0 -44s33 -12 45 0z" />
    <glyph glyph-name="uniF138" unicode="&#xf138;" 
d="M314 358v0v0v0h198v-342h-44l-146 149c-11 -29 -34 -52 -63 -63l85 -86h-344v416h241zM212 107v0c61 0 110 50 110 112s-49 112 -110 112c-11 0 -23 -2 -33 -5l65 -66l-15 -56l-55 -16l-66 68c-4 -11 -6 -24 -6 -37c0 -62 49 -112 110 -112z" />
    <glyph glyph-name="uniF139" unicode="&#xf139;" 
d="M0 96v352h512v-352h-512zM64 160h384v224h-384v-224zM256 64l144 -128h-288zM64 256v32h128v32h-128v32h128v32h32v-32h224v-32h-224v-32h224v-32h-224v-32h224v-32h-224v-32h-32v32h-128v32h128v32h-128z" />
    <glyph glyph-name="uniF13A" unicode="&#xf13a;" 
d="M192 160v96h-128v-96h128zM192 384h-128v-96h128v96zM224 160h224v96h-224v-96zM224 384v-96h224v96h-224zM512 96h-512v352h512v-352zM256 -64l-144 128h288z" />
    <glyph glyph-name="uniF13B" unicode="&#xf13b;" 
d="M212 106v0c71 0 130 59 130 130s-59 129 -130 129s-129 -58 -129 -129s58 -130 129 -130zM330 59c-34 -23 -74 -35 -118 -35c-117 0 -212 95 -212 212s95 212 212 212s212 -95 212 -212c0 -44 -12 -84 -35 -118l123 -123l-59 -59z" />
    <glyph glyph-name="uniF13C" unicode="&#xf13c;" horiz-adv-x="470" 
d="M441 206v-180h-441v303h139c-10 -9 -19 -20 -27 -31h-83v-241h382v121l30 28v0zM318 130v79c-52 1 -109 20 -221 -92c-9 230 157 238 221 238v80l152 -159z" />
    <glyph glyph-name="uniF13D" unicode="&#xf13d;" horiz-adv-x="479" 
d="M346 51c8 0 15 7 15 15s-7 14 -15 14h-238c-8 0 -15 -7 -15 -15s7 -15 15 -15l238 1v0v0v0zM368 140c8 0 15 7 15 15s-7 15 -15 15l-264 -1c-8 0 -14 -7 -14 -15s6 -15 14 -15l264 1v0v0v0zM313 229c8 0 15 7 15 15s-7 15 -15 15h-206c-8 0 -14 -7 -14 -15s6 -15 14 -15
h206v0v0v0zM89 440h299c50 0 91 -43 91 -92v-292c0 -50 -41 -98 -90 -98h-298c-50 0 -90 41 -90 91l-1 299c0 50 40 92 89 92c0 0 -49 0 0 0v0v0zM371 319c8 0 15 7 15 15s-7 14 -15 14h-264c-8 0 -15 -7 -15 -15s7 -15 15 -15l264 1v0z" />
    <glyph glyph-name="uniF13E" unicode="&#xf13e;" 
d="M415 -64l-319 1c-53 0 -96 43 -96 96l1 319c0 53 42 96 96 96l319 -1c53 0 96 -48 96 -101v-314c0 -53 -43 -96 -97 -96zM290 46l161 156l-161 168v-84c-68 0 -245 -9 -235 -254c119 120 180 99 235 98v-84z" />
    <glyph glyph-name="uniF13F" unicode="&#xf13f;" 
d="M480 170v141l-56 -81l-33 -50l-23 55l-64 158l-66 -63l-20 -19l-22 17l-50 38l-114 -106v-117l112 170l72 -125l100 31l82 -94zM0 0v274l144 133l72 -55l100 96l82 -201l114 168v-415h-512z" />
    <glyph glyph-name="uniF140" unicode="&#xf140;" 
d="M382 91l25 26l-37 37l16 16l-144 144l59 59l-18 18l-75 -75l-35 36v0l27 27l-18 18l-128 -128l18 -18l27 27l35 -35l-75 -76l18 -18l59 60v0l144 -144l16 16v0l38 -38l24 24l71 -64c-46 -42 -106 -67 -173 -67c-141 0 -256 115 -256 256s115 256 256 256
s256 -115 256 -256c0 -68 -26 -129 -69 -175zM352 172l-35 -35l-39 -38l-69 69l74 74z" />
    <glyph glyph-name="uniF141" unicode="&#xf141;" horiz-adv-x="482" 
d="M189 -43c-108 24 -189 120 -189 235c0 133 108 241 241 241s241 -108 241 -241c0 -81 -40 -153 -102 -197c-5 5 -11 11 -19 16c-107 73 -77 100 -20 166c107 125 -146 104 -146 104l-165 -10c29 -10 389 20 214 -94c-133 -87 -97 -174 -55 -220z" />
    <glyph glyph-name="uniF142" unicode="&#xf142;" 
d="M256 448c141 0 256 -115 256 -256s-115 -256 -256 -256s-256 115 -256 256s115 256 256 256zM104 144c31 0 56 25 56 56s-25 56 -56 56s-56 -25 -56 -56s25 -56 56 -56zM254 144c31 0 56 25 56 56s-25 56 -56 56s-56 -25 -56 -56s25 -56 56 -56zM408 144
c31 0 56 25 56 56s-25 56 -56 56s-56 -25 -56 -56s25 -56 56 -56z" />
    <glyph glyph-name="uniF143" unicode="&#xf143;" 
d="M303 143v97c24 17 61 43 99 69l-18 29l-113 -78v0v22c17 6 29 22 29 41c0 24 -20 44 -44 44s-44 -20 -44 -44c0 -19 12 -35 29 -41v0v-22v0l-112 78l-19 -29l100 -69v-97v0l-100 -101l28 -25l115 116h7l115 -116l27 25zM0 192c0 141 115 256 256 256s256 -115 256 -256
s-115 -256 -256 -256s-256 115 -256 256z" />
    <glyph glyph-name="uniF144" unicode="&#xf144;" 
d="M256 -64c-141 0 -256 115 -256 256s115 256 256 256s256 -115 256 -256c0 -62 -21 -119 -58 -163c-47 -57 -118 -93 -198 -93zM352 188v36c0 18 -14 32 -32 32h-110l-21 128h-34c-21 0 0 0 0 0c-11 0 -16 -12 -15 -21c0 0 -3 29 0 0s29 -191 29 -191c3 -18 20 -32 37 -32
h137l51 -53c12 -13 33 -12 45 0l9 9l-96 90v2zM318 186h-97l-6 36h103v-36v0zM179 67c-40 0 -72 35 -72 78c0 29 15 54 38 67l-7 44c-44 -18 -74 -59 -74 -109c0 -65 52 -123 115 -123c60 0 106 63 115 95h-44c-9 -32 -37 -52 -71 -52z" />
    <glyph glyph-name="uniF145" unicode="&#xf145;" 
d="M256 448v0c141 0 256 -115 256 -256s-115 -256 -256 -256s-256 115 -256 256s115 256 256 256zM256 1c71 0 128 45 128 74v138c0 3 -1 7 -2 10c-13 -24 -65 -42 -126 -42c-63 0 -115 19 -126 44c-2 -4 -3 -8 -3 -12c0 -1 1 -2 1 -3v-132c0 -1 -1 -2 -1 -3
c0 -29 58 -74 129 -74zM385 267c0 1 -1 2 -1 3v47c0 1 1 2 1 3c0 29 -58 53 -129 53s-128 -24 -128 -53v-53c0 -6 2 -11 6 -16c16 -22 65 -38 122 -38s106 16 122 38c4 5 7 10 7 16zM256 311c42 0 79 5 102 12c0 -1 1 -2 1 -3c0 -17 -46 -30 -103 -30s-102 13 -102 30
c0 1 1 2 1 3c23 -7 59 -12 101 -12z" />
    <glyph glyph-name="uniF146" unicode="&#xf146;" 
d="M256 448c141 0 256 -115 256 -256s-115 -256 -256 -256s-256 115 -256 256s115 256 256 256zM331 180v108c0 47 -34 85 -75 85s-75 -38 -75 -85v-108v-9v-75c0 -47 34 -85 75 -85s75 38 75 85v75v9zM181 171c0 0 88 70 150 0v20s-63 99 -150 0z" />
    <glyph glyph-name="uniF147" unicode="&#xf147;" 
d="M124 283l1 -1s12 -89 40 -131s264 -90 264 -90l-182 230l-23 29l-80 102c34 17 72 26 112 26c141 0 256 -115 256 -256s-115 -256 -256 -256s-256 115 -256 256c0 61 22 117 57 161l64 -68l103 35l23 -29z" />
    <glyph glyph-name="uniF148" unicode="&#xf148;" 
d="M145 279l-58 62l67 67l135 -143l30 -33l-29 -33l-135 -152l-69 65l64 71h-150v96h145zM210 52v0l28 31c23 -13 48 -19 76 -19c88 0 160 73 160 163s-72 163 -160 163c-27 0 -52 -7 -74 -19l-30 31c30 19 65 30 103 30c110 0 199 -92 199 -205s-89 -205 -199 -205
c-38 0 -73 11 -103 30zM266 115v0l30 35c5 -1 11 -2 17 -2c42 0 77 35 77 79s-35 79 -77 79c-4 0 -7 0 -11 -1l-33 35c14 6 29 9 44 9c65 0 118 -55 118 -122s-53 -122 -118 -122c-17 0 -33 4 -47 10z" />
    <glyph glyph-name="uniF149" unicode="&#xf149;" horiz-adv-x="470" 
d="M229 -48c-46 0 -89 13 -125 36l34 39c27 -15 60 -24 93 -24c106 0 192 88 192 197s-86 198 -192 198c-33 0 -64 -8 -91 -23l-35 37c36 23 79 36 124 36c133 0 241 -111 241 -248s-108 -248 -241 -248zM229 53c-20 0 -40 4 -57 12l37 42c7 -2 14 -3 21 -3
c51 0 93 43 93 96s-42 96 -93 96c-5 0 -10 0 -15 -1l-39 42c16 7 34 11 53 11c79 0 143 -67 143 -148s-64 -147 -143 -147zM107 99c0 -30 -25 -55 -54 -55s-53 25 -53 55s24 54 53 54s54 -24 54 -54zM107 316c0 -30 -25 -54 -54 -54s-53 24 -53 54s24 55 53 55
s54 -25 54 -55zM214 208c0 -30 -25 -55 -54 -55s-53 25 -53 55s24 54 53 54s54 -24 54 -54z" />
    <glyph glyph-name="uniF14A" unicode="&#xf14a;" horiz-adv-x="475" 
d="M236 254c29 0 52 -24 52 -53s-23 -53 -52 -53s-52 24 -52 53s23 53 52 53zM163 -12l7 91s8 50 70 50c54 0 62 -50 62 -50l7 -91c1 -10 -6 -22 -14 -26c-18 -8 -40 -15 -59 -15s-44 9 -60 16c-8 4 -14 15 -13 25zM475 209c0 -46 -13 -89 -35 -125l-36 34
c15 27 23 59 23 92c0 106 -85 192 -189 192s-190 -86 -190 -192c0 -32 8 -63 22 -90l-36 -35c-22 36 -34 79 -34 124c0 132 107 239 238 239s237 -107 237 -239zM379 208c0 -20 -5 -39 -12 -56l-40 37c1 7 2 13 2 20c0 51 -40 93 -91 93s-92 -42 -92 -93c0 -5 0 -9 1 -14
l-41 -40c-6 16 -10 34 -10 53c0 79 64 142 142 142s141 -63 141 -142z" />
    <glyph glyph-name="uniF14B" unicode="&#xf14b;" horiz-adv-x="503" 
d="M74 144c0 -2 -1 -3 -3 -3h-12c-2 0 -3 1 -3 3l-10 54c-1 4 -2 11 -2 15c0 -4 0 -11 -1 -15l-11 -54c0 -2 -1 -3 -3 -3h-12c-2 0 -4 0 -4 2l-13 74c0 2 0 3 2 3h9c2 0 3 -1 3 -3l8 -52c1 -4 1 -12 1 -16c1 5 1 12 2 16l11 53c0 2 1 2 3 2h11c2 0 3 0 3 -2l10 -52
c1 -5 2 -12 2 -17c0 4 1 12 2 16l8 53c0 2 1 2 3 2h8c2 0 2 -1 2 -3l-14 -73zM101 209c-4 0 -7 4 -7 8s3 8 7 8s8 -4 8 -8s-4 -8 -8 -8v0v0v0zM105 141h-7c-2 0 -3 1 -3 3v51c0 2 1 3 3 3h7c2 0 2 -1 2 -3v-51c0 -2 0 -3 -2 -3v0zM132 140c-6 0 -11 2 -16 4c-2 1 -2 1 -2 3
l2 5c0 2 1 3 3 2c4 -2 8 -3 13 -3s7 2 7 6c0 5 -5 7 -11 10s-12 8 -12 16c0 9 6 16 18 16c6 0 9 -1 13 -3c1 -1 3 -1 2 -3l-2 -4c-1 -2 -2 -3 -3 -2c-2 1 -6 2 -10 2s-6 -2 -6 -5c0 -4 4 -6 9 -9c6 -4 14 -9 14 -18s-6 -17 -19 -17zM194 166h-28c0 -10 4 -15 14 -15
c4 0 8 1 11 2c2 1 3 -1 3 -2l2 -4c1 -2 -1 -3 -2 -4c-4 -2 -9 -3 -16 -3c-16 0 -25 10 -25 30c0 17 9 29 23 29c13 0 21 -9 21 -30c0 -2 -1 -3 -3 -3v0v0v0zM176 189c-5 0 -9 -4 -10 -14h19c0 7 -2 14 -9 14v0zM234 187c0 -2 -1 -2 -3 -2s-5 2 -7 2c-4 0 -8 -5 -8 -16v-27
c0 -2 -1 -3 -3 -3h-6c-2 0 -3 1 -3 3v51c0 2 1 3 3 3h4c1 0 3 0 3 -2l2 -5c3 5 7 8 13 8c2 0 4 0 5 -1c2 -1 2 -2 2 -4l-2 -7zM299 141h-7c-2 0 -3 1 -3 3v34h-25v-34c0 -2 -1 -3 -3 -3h-7c-2 0 -2 1 -2 3v74c0 2 0 2 2 2h7c2 0 3 0 3 -2v-30h25v30c0 2 1 2 3 2h7
c2 0 3 0 3 -2v-74c0 -2 -1 -3 -3 -3zM351 166h-28c0 -10 3 -15 13 -15c4 0 8 1 11 2c2 1 4 -1 4 -2l1 -4c1 -2 0 -3 -1 -4c-4 -2 -9 -3 -16 -3c-16 0 -25 10 -25 30c0 17 8 29 22 29c13 0 22 -9 22 -30c0 -2 -1 -3 -3 -3v0v0v0zM332 189c-5 0 -8 -4 -9 -14h19
c0 7 -3 14 -10 14v0zM397 141h-6c-2 0 -3 1 -3 3v4c-3 -5 -9 -8 -16 -8c-10 0 -16 7 -16 18c0 12 8 17 19 18l12 1l-1 2c0 6 -2 9 -9 9c-4 0 -8 -1 -11 -2c-2 0 -4 0 -4 2l-1 5c0 2 0 3 2 3c4 1 10 3 15 3c20 0 21 -13 21 -23v-19c0 -3 -1 -7 0 -10l1 -3c0 -2 -1 -3 -3 -3v0
v0v0zM387 168h-7c-7 0 -11 -2 -11 -10c0 -5 2 -8 6 -8c7 0 12 6 12 10v8v0zM429 142c-2 -1 -6 -2 -9 -2c-9 0 -12 4 -12 12v70c0 2 1 3 3 3h6c2 0 3 -1 3 -3v-66c0 -3 1 -5 3 -5c1 0 2 1 3 1c2 0 3 0 3 -2l1 -5c0 -1 0 -3 -1 -3zM456 141c-2 -1 -6 -1 -9 -1
c-9 0 -12 5 -12 13v36h-7c-2 0 -2 0 -2 2v4c0 2 0 3 2 3h7v12c0 2 0 4 2 4l6 1c2 0 4 0 4 -2v-15h7c2 0 2 -1 2 -3v-4c0 -2 0 -2 -2 -2h-7v-33c0 -3 1 -5 4 -5h3c2 0 3 0 3 -2l1 -4c0 -1 0 -4 -2 -4zM500 141h-6c-2 0 -3 1 -3 3v38c0 5 -2 6 -6 6c-6 0 -12 -5 -12 -13v-31
c0 -2 -1 -3 -3 -3h-6c-2 0 -3 1 -3 3v78c0 2 1 3 3 3h6c2 0 3 -1 3 -3v-30c4 5 10 7 16 7c9 0 14 -6 14 -15v-40c0 -2 -1 -3 -3 -3z" />
    <glyph glyph-name="uniF14C" unicode="&#xf14c;" 
d="M326 192l186 -186l-70 -70l-186 186l-186 -186l-70 70l186 186l-186 186l70 70l186 -186l186 186l70 -70z" />
    <glyph glyph-name="uniF14D" unicode="&#xf14d;" 
d="M256 448c141 0 256 -115 256 -256s-115 -256 -256 -256s-256 115 -256 256s115 256 256 256zM261 148l-112 -100l-41 46l106 96l-106 95l41 47l112 -101l108 97l41 -46l-103 -92l103 -92l-41 -46zM256 -33c124 0 225 101 225 225s-101 225 -225 225s-225 -101 -225 -225
s101 -225 225 -225z" />
    <glyph glyph-name="uniF14E" unicode="&#xf14e;" horiz-adv-x="504" 
d="M469 323c23 -38 35 -83 35 -131c0 -141 -113 -256 -252 -256s-252 115 -252 256s113 256 252 256c57 0 111 -19 153 -52c-4 -2 -7 -4 -11 -7c-53 -37 -106 -90 -155 -161c-16 -24 -32 -50 -47 -77l75 11l-6 5c-23 17 -49 40 -75 65c-9 9 -17 18 -25 26c-4 5 -8 7 -10 9
l-69 -65l11 -11c8 -9 17 -18 27 -28c29 -28 58 -54 80 -69l5 -5l44 -31l26 47c13 24 27 47 41 68c42 61 87 105 131 136c8 5 15 10 22 14z" />
  </font>
</defs>
</svg>
